<svg xmlns="http://www.w3.org/2000/svg" xmlns:xlink="http://www.w3.org/1999/xlink" viewBox="0 0 360.85 268.51"><defs><style>.cls-1,.cls-2,.cls-4,.cls-5,.cls-7{stroke:#1d1d1b;}.cls-1,.cls-2,.cls-4,.cls-5,.cls-6,.cls-7{stroke-miterlimit:10;}.cls-1{stroke-width:4px;fill:url(#linear-gradient);}.cls-2{stroke-width:0.5px;fill:url(#radial-gradient);}.cls-3,.cls-7{fill:#1d1d1b;}.cls-4{fill:#3c3c3b;}.cls-5{fill:none;stroke-width:5px;}.cls-6{fill:#341f51;stroke:#3c3c3b;stroke-width:0.25px;}</style><linearGradient id="linear-gradient" x1="134.24" y1="132.96" x2="136.84" y2="397.8" gradientUnits="userSpaceOnUse"><stop offset="0" stop-color="#009fe3"/><stop offset="0.11" stop-color="#0e7cc7"/><stop offset="0.27" stop-color="#214ea2"/><stop offset="0.39" stop-color="#2d328c"/><stop offset="0.46" stop-color="#312783"/></linearGradient><radialGradient id="radial-gradient" cx="69.96" cy="32.23" r="0" gradientUnits="userSpaceOnUse"><stop offset="0.35" stop-color="#a48a7b"/><stop offset="0.48" stop-color="#a99080"/><stop offset="0.66" stop-color="#b6a18c"/><stop offset="0.85" stop-color="#cbbba0"/></radialGradient></defs><g id="Layer_1" data-name="Layer 1"><circle class="cls-1" cx="134.26" cy="134.26" r="132.26"/></g><g id="Layer_9" data-name="Layer 9"><path class="cls-2" d="M70,32.23" transform="translate(-16.91 -13.34)"/></g><g id="Layer_3" data-name="Layer 3"><path class="cls-3" d="M375.75,103.29c.51,0,1.65-.22,1.93-.71s-.26-.55-.7-.55-1.66.22-1.94.71.26.55.71.55Z" transform="translate(-16.91 -13.34)"/><path class="cls-3" d="M320.06,171.13c1.66,0,2.23-2.13.26-2.13-1.66,0-2.22,2.13-.26,2.13Z" transform="translate(-16.91 -13.34)"/><path class="cls-4" d="M115.51,99" transform="translate(-16.91 -13.34)"/></g><g id="Layer_14" data-name="Layer 14"><path class="cls-3" d="M97.33,175l6,18.37c.44,1.34.91,2.68,1.27,4.05a13.07,13.07,0,0,1,.42,2,7,7,0,0,1,.06.92c0,.55-.17.56.06.4-.72.51-2.16.13-3,.12a8.71,8.71,0,0,0-4.19,1c-5.41,2.83-6,9.38-5,14.73,1,5.57,2.78,11.4,6,16.1a27.28,27.28,0,0,0,14.26,10.46c2,.61,4.14-1.89,2.82-3.68a18.6,18.6,0,0,1-3.61-13.06l-3.76,2.16a45,45,0,0,0,10.55,5.65c3.51,1.34,7.48,1.77,10.64,3.88,2.05,1.37,4.81-1.36,3.42-3.42a32.06,32.06,0,0,1-5.41-14.44L123.63,222A18.63,18.63,0,0,0,137,228c3.22.08,3.22-4.92,0-5a13.6,13.6,0,0,1-9.79-4.54c-1.38-1.5-4.51-.4-4.27,1.77a37.31,37.31,0,0,0,6.09,17l3.42-3.42c-3.31-2.21-7.32-2.76-11-4.07a41.42,41.42,0,0,1-10.18-5.45c-1.69-1.23-3.59.47-3.76,2.15a22.85,22.85,0,0,0,4.3,15.59l2.82-3.68a21.67,21.67,0,0,1-11.16-8c-3.11-4.41-4.68-9.82-5.64-15.07-.43-2.32-.6-5,.64-7.06a5,5,0,0,1,1.77-1.85c1.08-.62,2.18-.41,3.38-.37,2.63.08,5.5-.89,6.3-3.68s-.36-6.15-1.24-8.84q-3.22-9.89-6.47-19.78c-1-3.05-5.83-1.74-4.83,1.33Z" transform="translate(-16.91 -13.34)"/><path class="cls-3" d="M135.41,227.76a7.69,7.69,0,0,0,2.76.8l.53.06c-.22,0-.18,0,.13,0s.52.13.77.21.33.12.15,0l.48.23c.44.2.88.4,1.33.58a10.39,10.39,0,0,0,2.11.61c1.44.28,3.29.37,4.53.56a17,17,0,0,1,1.78.39l.5.17.14.07a9.46,9.46,0,0,1,.91.54,2.51,2.51,0,0,0,3.42-.89,2.57,2.57,0,0,0-.9-3.42,10.4,10.4,0,0,0-4.05-1.6c-1.41-.26-3.24-.37-4.42-.54a13.3,13.3,0,0,1-2.16-.51c-.31-.12-.37-.14-.17-.06l-.49-.22-1-.46a8,8,0,0,0-2.1-.6l-.93-.13c-.31,0-.35,0-.13,0a3.1,3.1,0,0,1-.51-.11c-.29-.09-.33-.1-.12-.05a2.5,2.5,0,0,0-2.53,4.32Z" transform="translate(-16.91 -13.34)"/><path class="cls-3" d="M117.13,220.9a15.14,15.14,0,0,0,2.85,3.62,2.53,2.53,0,0,0,4.27-1.77,11.26,11.26,0,0,0-.72-5,2.53,2.53,0,0,0-2.74-1.79,2.5,2.5,0,0,0-2.17,2.45c-.05,2.53.26,5.33,2.37,7a2.62,2.62,0,0,0,3,.39,2.54,2.54,0,0,0,1.14-2.83,9.85,9.85,0,0,0-2.84-4.51,5.44,5.44,0,0,0-2.65-1.48,2.74,2.74,0,0,0-3,1.85c-.58,1.78.7,3.93,1.59,5.44a19.86,19.86,0,0,0,3.43,4.26A2.5,2.5,0,0,0,125.2,225a24.27,24.27,0,0,0-9.09-6.16,2.57,2.57,0,0,0-2.83,1.15c-1.28,1.7.14,3.65,1,5.13l3,4.89,3.92-3c-2.38-3-5.66-6.43-9.64-6.82-2-.19-3,2.24-2.16,3.77a7.76,7.76,0,0,0,4.79,3.78c2,.56,4-1.81,2.83-3.67a9.22,9.22,0,0,0-5-3.84c-2.45-.84-4.08,2.46-2.43,4.17,1.85,1.92,4.69,2.67,7.11,3.64,2.13.86,4.49,1.59,6.15,3.26l2.43-4.18a29.63,29.63,0,0,1-3.24-1.49,6.55,6.55,0,0,0-1-.53c-.93-.32.43.66.27.66a7.92,7.92,0,0,0,.68-1.66,23.62,23.62,0,0,0,1-3.7c0-.08.18-1,.17-1a7.14,7.14,0,0,1-.56.54s.89.08,1.07.1c2.35.4,4.5,1.56,6.84,2s4.44.34,6.28,2l2.44-4.17a41.21,41.21,0,0,0-6.7-1.26v5c3.79.4,7.4,2,10.89,3.41a2.48,2.48,0,0,0,2.95-1.45,2.52,2.52,0,0,0-1-3.12c-2-1.26-3.86-2.71-5.9-3.9a55.52,55.52,0,0,0-7.22-3.22,54.63,54.63,0,0,0-14.7-4.06c-2.79-.29-3.43,4.38-.67,4.91a104,104,0,0,1,13.89,3.67,2.49,2.49,0,0,0,3-1.45,2.53,2.53,0,0,0-1-3.12,59.15,59.15,0,0,0-13.66-6.88,2.52,2.52,0,0,0-3.07,1.75,2.55,2.55,0,0,0,1.74,3.07,59.86,59.86,0,0,1,9.33,4.6,2.51,2.51,0,0,0,3-3.93,87.55,87.55,0,0,0-9.65-8.19L118,210a51.72,51.72,0,0,0,6.46,4,2.5,2.5,0,0,0,2.52-4.32l-6.18-4.24-2.53,4.31,9.47,5.6c2.86,1.68,6.17,3.18,8.64,5.41l3-3.92c-4.63-3.54-10.45-4.88-15.75-7.07-2.33-1-7-3.23-8.8-.38-.83,1.3-.83,3.23-.9,4.73a27.82,27.82,0,0,0,.3,5,2.51,2.51,0,0,0,2.41,1.83,2.63,2.63,0,0,0,2.42-1.83,6.5,6.5,0,0,0-.2-5.24,3.57,3.57,0,0,0-4.8-1.55c-3.2,1.78-1.9,7.84,1.58,8.5a2.56,2.56,0,0,0,3.08-1.75c.79-3.25,0-8.67-4.08-9.32-4.7-.77-4.71,6.06-4.7,9.08,0,2.31,3.61,3.63,4.65,1.26s1.77-7.06-1.64-7.86c-4-.93-4,5-3.68,7.44a2.5,2.5,0,0,0,5,0c.27-2.23-1-5.53-3.73-5.16s-3,3.83-2.82,5.92l4.92-.66-.35-1.85a2.47,2.47,0,0,0-2.74-1.79,2.53,2.53,0,0,0-2.17,2.45L107,223l4.91-.67c-.61-2.28.37-4.84.64-7.12a28.4,28.4,0,0,0-.27-8,2.53,2.53,0,0,0-3.08-1.74,2.55,2.55,0,0,0-1.74,3.07,22.5,22.5,0,0,1,0,7.37c-.45,2.6-1,5.11-.34,7.72.75,2.86,4.68,2,4.91-.66l.36-4.42-4.91.67.34,1.85c.51,2.74,5.15,2.15,4.91-.67a4.44,4.44,0,0,1,.1-2l-.9.9.21-.15-1.92.25.27.08-1.1-.64c-.19-.24-.08.62-.11.85h5a9.36,9.36,0,0,1,.21-4.18l-.64,1.1.21-.18-2.43.64.24.05-1.1-.64.17.2-.64-1.1a2.64,2.64,0,0,1,0,2l4.66,1.26a25.94,25.94,0,0,1,.14-3,4.37,4.37,0,0,1,.47-2l-.89.9c-1.12.83-1.46-.78-1,.33a4.15,4.15,0,0,1,.2,2.77L117,216a1.29,1.29,0,0,1,.33.33c.08.14.09.13,0,0l0-.4c0-.67-.17-.44-.59.68l-1.26.34c-.9-1-1.23-1.21-1-.52a.85.85,0,0,1,0,.32,2.93,2.93,0,0,1-.28,1.07h4.83a20.25,20.25,0,0,1-.15-3.21c0-.53,0-1.06.1-1.59q0-.34.09-.69c.1-.47.11-.6,0-.37l-1.5,1.14a6.76,6.76,0,0,1,2.23.58c.82.28,1.62.62,2.42,1,1.69.7,3.4,1.32,5.12,1.93a33.87,33.87,0,0,1,9.44,4.64c2.25,1.72,5.11-2,3-3.93-2.7-2.45-6.1-4.11-9.22-5.95l-9.89-5.84c-2.81-1.66-5.15,2.51-2.53,4.31l6.19,4.25,2.52-4.32a52,52,0,0,1-6.45-4,2.53,2.53,0,0,0-3.43.89A2.56,2.56,0,0,0,118,210a81.46,81.46,0,0,1,8.65,7.41l3-3.92a68.6,68.6,0,0,0-10.53-5.1l-1.33,4.82a54.19,54.19,0,0,1,12.47,6.38l1.93-4.57a104,104,0,0,0-13.89-3.67l-.66,4.91c4.63.48,9.08,2.16,13.37,3.88a44.63,44.63,0,0,1,6.22,2.83c2,1.17,3.78,2.57,5.71,3.78l1.93-4.56a43.36,43.36,0,0,0-12.22-3.59,2.52,2.52,0,0,0-2.5,2.5,2.56,2.56,0,0,0,2.5,2.5,32.75,32.75,0,0,1,5.37,1.08c2.31.64,4.35-2.49,2.43-4.18A12.44,12.44,0,0,0,136,218c-1.64-.52-3.4-.46-5.06-.92-3.12-.85-6.89-3-10.15-1.67-1.88.77-2.21,2.36-2.6,4.15s-1.17,3.38-1.68,5.12c-1.29,4.33,4.43,6.11,7.49,7.3,2.42.94,4.08-2.52,2.43-4.18a18.67,18.67,0,0,0-6.6-3.83l-3.73-1.51a8,8,0,0,1-2.92-1.55L110.73,225a3.74,3.74,0,0,1,2,1.54l2.82-3.67a2.74,2.74,0,0,1-1.8-1.49l-2.16,3.76c1,.1,2.18,1.32,2.89,1.95a28.06,28.06,0,0,1,3.22,3.41c1.8,2.23,5.37-.65,3.92-3L119.49,224l-1-1.63-.5-.82-.24-.4c-.2-.36-.19-.27,0,.28l-.34,1.26.14-.19-2.82,1.15a18.65,18.65,0,0,1,6.88,4.86L125.2,225c-1.63-1.55-3.36-3.65-3.84-5.9v1.33l.1-.27-1.74,1.75.28-.06h-1.32a4.45,4.45,0,0,1,1.66,2.45l4.18-2.43c-1.08-.87-.92-2.2-.9-3.49l-4.91.67a7.84,7.84,0,0,1,.54,3.68l4.26-1.76a10.84,10.84,0,0,1-2.06-2.61c-1.58-2.8-5.9-.29-4.32,2.52Z" transform="translate(-16.91 -13.34)"/><path class="cls-3" d="M117.31,207.75a13.67,13.67,0,0,0-4.32-5c-1.43-1-4,.34-3.76,2.16.32,2.36,1,6.74,4.25,6.56A2.52,2.52,0,0,0,116,209c-.22-2.17-1-5-3.07-6.14a3.44,3.44,0,0,0-4.18.5c-1.18,1.18-1.17,2.72-1,4.25l2.41-3.16-1.15.06,1.77,4.27.34-.3c.15-.13.22-.17,0,0,.24-.17.49-.34.75-.5s.52-.28.79-.41c-.23.11-.19.07,0,0l.53-.17a3.48,3.48,0,0,0,.44-.1c.34-.11-.36,0,0,0a8.82,8.82,0,0,1,.89,0c.06,0,.53,0,.23,0s.16,0,.22.05l.43.11c.09,0,.56.22.13,0a2.5,2.5,0,0,0,2.52-4.32c-.52-.34-1-.69-1.52-1.06s.36.3-.23-.18l-.71-.6a28.44,28.44,0,0,1-2.48-2.43,2.51,2.51,0,0,0-2.43-.65,2.62,2.62,0,0,0-1.75,1.75,6.12,6.12,0,0,0-.35,2.75,2.58,2.58,0,0,0,1.84,2.41,2.62,2.62,0,0,0,2.82-1.15,6.22,6.22,0,0,0,.76-5.52l-4.18,2.43a27.53,27.53,0,0,1,3.49,3.34l3.53-3.54c-.48-.47-1-1-1.39-1.47-.24-.27-.47-.55-.69-.82l-.31-.37s-.4-.53-.24-.31-.14-.19-.17-.23l-.28-.38-.64-.87L112,194.44a2.56,2.56,0,0,0-3.42-.9,2.53,2.53,0,0,0-.9,3.42,50.63,50.63,0,0,0,5.74,7.23,2.53,2.53,0,0,0,3.53,0,2.56,2.56,0,0,0,0-3.54,27.4,27.4,0,0,0-3.48-3.33,2.59,2.59,0,0,0-3-.4,2.55,2.55,0,0,0-1.15,2.83c0,.12.37.93.14.3,0,.07.06,1.06,0,.33,0,.14-.3.92,0,.36a4,4,0,0,1-.41.68l4.66,1.26a4.22,4.22,0,0,1,0-.94c-.06.52.15-.37.19-.48l-4.18,1.1a31,31,0,0,0,6,5.06l2.52-4.32a9.1,9.1,0,0,0-6-.61,11.28,11.28,0,0,0-4.87,2.73,2.52,2.52,0,0,0,1.76,4.27l1.15-.06a2.56,2.56,0,0,0,2.41-3.17c0,.26,0,.24,0-.06l0,.18a1.4,1.4,0,0,1-1.46,1,1.13,1.13,0,0,1-.83-.25c-.15-.12-.13-.09,0,.07q-.24-.33-.09-.09a2.61,2.61,0,0,1,.17.28,6.36,6.36,0,0,1,.3.58c-.18-.39,0,.07.07.22s.1.35.14.53,0,.22.07.32c0-.3,0-.3,0,0l2.5-2.5c1.35,1.1,1.82,1.34,1.41.71-.1-.21-.1-.2,0,0a9.37,9.37,0,0,1-.31-.89c-.09-.29-.17-.6-.24-.9,0-.1-.18-1-.11-.49l-3.76,2.16c.56.41-.35-.33.17.14.16.14.33.28.48.43s.53.58.81.87-.19-.29.08.08l.36.54a11.27,11.27,0,0,1,.63,1.13,2.52,2.52,0,0,0,3.42.9,2.57,2.57,0,0,0,.89-3.42Z" transform="translate(-16.91 -13.34)"/><path class="cls-3" d="M105.78,211.13a51.33,51.33,0,0,0-.53,6.78c0,3.22,5,3.22,5,0a15.52,15.52,0,0,1,2.37-8l-4.32-2.52a20.23,20.23,0,0,0-2,5.74c-.37,2.06-.22,4.13-.49,6.19l4.91-.67a59.84,59.84,0,0,1-.85-6.11c-.18-1.85-.58-3.81.14-5.57,1.06-2.61-3.34-4.47-4.57-1.93-.88,1.82-1.85,3.59-2.89,5.32-1.67,2.77,2.62,5.25,4.32,2.52a35.92,35.92,0,0,0,2.32-4.38,2.6,2.6,0,0,0-.39-3,2.5,2.5,0,0,0-3-.39,18.2,18.2,0,0,0-3.81,3.78l4.32,2.52a5.9,5.9,0,0,0,1.27-3.22,2.86,2.86,0,0,0-3.16-2.81c-2.21.23-4.15,2.77-5.27,4.49l4.57,1.93c.5-1.69.83-4.15-1-5.2s-3.7.62-4.56,2.2l4.66,1.26c0-.3,0-.3-.11-.29a3.72,3.72,0,0,0,2.89-1c1.28-1.42.56-4.58-1.77-4.27a7.8,7.8,0,0,0-6.79,7,12.42,12.42,0,0,0,.78,5.75,11,11,0,0,0,2.87,4.91,2.52,2.52,0,0,0,4.18-2.43l-.78-4a13.83,13.83,0,0,1-.57-3.77l-4.65,1.27c1.29,2.33,2,6.18,4.75,7.31,2.1.87,3.81-.74,4-2.77a15,15,0,0,0-.47-5.29c-.69-2.71-5-2.17-4.91.67a14.2,14.2,0,0,0,2.35,7.58,2.51,2.51,0,0,0,4.57-1.93c-.49-2.09-1.06-4.15-1.7-6.2a2.51,2.51,0,0,0-4.91.66,25.29,25.29,0,0,0,.53,6.38c.18,1,.39,2,.55,3a5.12,5.12,0,0,1,.12,2.6l4.18-1.1c-1.28-1.46-1.38-3.89-2.22-5.61-.94-1.92-3.37-4.58-5.73-3.2-2.54,1.48-1.43,5-.51,7a54.54,54.54,0,0,0,3.5,6.69c1.68,2.75,5.84.32,4.32-2.52l-4.93-9.24a2.49,2.49,0,0,0-3.12-1,2.56,2.56,0,0,0-1.45,3c.41,2.82,2.16,5.49,3.57,7.91,1.31,2.24,3.19,4.33,3.92,6.85l4.82-1.33c-.88-2.37-.33-4.74.24-7.12.74-3.12-4.08-4.46-4.83-1.33s-1.42,6.6-.23,9.78a2.57,2.57,0,0,0,3.08,1.74,2.52,2.52,0,0,0,1.74-3.07c-.78-2.71-2.49-4.86-3.94-7.23s-3.15-4.84-3.55-7.53L98,219.84l4.93,9.24,4.32-2.52c-.9-1.48-1.75-3-2.51-4.55-.43-.87-1.65-2.67-1.3-3.68l-.64,1.1.17-.16-1.77.73h.23l-1.27-.34c1.14.51,1.44,2.08,1.76,3.16a12.35,12.35,0,0,0,2.43,4.87c1.36,1.56,3.55.5,4.18-1.1.81-2.05,0-4.78-.41-6.86a24.3,24.3,0,0,1-.61-6.42l-4.91.67c.64,2.05,1.21,4.11,1.7,6.2l4.57-1.92a9.29,9.29,0,0,1-1.67-5.06l-4.91.66a8.37,8.37,0,0,1,.32,3.58l.64-1.1-.17.21,1.76-.73h-.32l1.26.34a6.54,6.54,0,0,1-1.23-2.28c-.46-1.05-.87-2.11-1.43-3.12-1.28-2.31-4.46-1.07-4.66,1.26a17.37,17.37,0,0,0,.65,4.63l.88,4.44,4.18-2.43c-1.45-1.23-2.22-3.87-2.27-5.71,0-1.13.45-3.28,1.87-3.47l-1.76-4.27-.19.21,1.1-.64c-.23.07-1.1.06-1.56.18a5.09,5.09,0,0,0-2.06,1.2,4.89,4.89,0,0,0-1.54,3.92,2.59,2.59,0,0,0,1.83,2.41,2.53,2.53,0,0,0,2.82-1.15c0,.1.44-.62.12-.39l-1.26.34h.13l-1.77-.73.08.09-.64-1.1c0-.18-.21.8-.26.95-.83,2.8,3.06,4.25,4.57,1.93a8.25,8.25,0,0,1,1.07-1.35l.57-.54c.19-.15.55-.32.31-.27H104l.22.08-1.75-1.74.11.28v-1.33a3.3,3.3,0,0,1-.68,1.36,2.52,2.52,0,0,0,.9,3.42,2.56,2.56,0,0,0,3.42-.9,10.19,10.19,0,0,1,2-2L104.85,206a34.71,34.71,0,0,1-2.32,4.39l4.32,2.52q1.56-2.59,2.89-5.32l-4.57-1.92c-.9,2.19-.54,4.61-.32,6.9a74.71,74.71,0,0,0,1,7.44,2.47,2.47,0,0,0,2.75,1.79,2.56,2.56,0,0,0,2.17-2.45c.21-1.62,0-3.25.31-4.86a15.54,15.54,0,0,1,1.52-4.55c1.47-2.85-2.62-5.28-4.32-2.52a20.65,20.65,0,0,0-3,10.49h5a41.44,41.44,0,0,1,.35-5.45,2.58,2.58,0,0,0-1.74-3.07,2.52,2.52,0,0,0-3.08,1.74Z" transform="translate(-16.91 -13.34)"/><path class="cls-3" d="M121.08,203.2a2.62,2.62,0,0,0-.92-.92l-.6-.25a3.84,3.84,0,0,0-.68-.09,2.6,2.6,0,0,0-1.84.76,2.66,2.66,0,0,0-.42.54c-.11.2-.19.44-.28.64l-.1.25-.39,1,4.82,1.33a4,4,0,0,0,.12-.83.37.37,0,0,0,0-.11l-.09-.67v-.06l-.06-.18a6,6,0,0,0-.33-.76,12.05,12.05,0,0,0-.88-1.12l.39.5a1.85,1.85,0,0,1-.21-.33l.26.59a.88.88,0,0,1-.07-.23l.09.67v-.06a1.9,1.9,0,0,0-.22-1,1.82,1.82,0,0,0-.52-.8,1.85,1.85,0,0,0-.8-.52,1.88,1.88,0,0,0-1-.21l-.67.09a2.5,2.5,0,0,0-1.1.64l-.39.51a2.43,2.43,0,0,0-.34,1.26,3.43,3.43,0,0,0,.15.95,4.4,4.4,0,0,0,.4.85c.25.35.53.66.8,1l-.39-.5a1.9,1.9,0,0,1,.22.37l-.25-.6a1.05,1.05,0,0,1,.06.24l-.09-.66a.38.38,0,0,1,0,.15l.09-.66a.5.5,0,0,1,0,.12,1.89,1.89,0,0,0,0,1,2.26,2.26,0,0,0,.94,1.63,1.94,1.94,0,0,0,.85.45l.67.09a2.54,2.54,0,0,0,1.26-.35l.5-.39a2.52,2.52,0,0,0,.65-1.1l.49-1.21-.25.6,0,0-.4.5,0,0-.51.39,0,0-.6.26h0l-.66.09h0l-.66-.09h0l-.59-.25h0l-.9-.9v0a2,2,0,0,0,.65.7,1.89,1.89,0,0,0,.85.45,1.85,1.85,0,0,0,1,0,1.79,1.79,0,0,0,.93-.29l.51-.4a2.5,2.5,0,0,0,.64-1.1l.09-.66a2.47,2.47,0,0,0-.34-1.27Z" transform="translate(-16.91 -13.34)"/><path class="cls-3" d="M112.76,193.09c-.2-.21-.38-.42-.57-.64s.06,0,.08.11c0-.09-.19-.27-.24-.35s-.28-.44-.4-.66a2.46,2.46,0,0,1-.38-.76c0,.2.17.42,0,0l-.11-.32c-.09-.27-.16-.54-.23-.82s0-.28-.08-.42c-.08-.39,0,.14,0,.16a3.11,3.11,0,0,1-.08-.84,5,5,0,0,0-1.13-2.67s-.35-.46-.13-.14-.07-.11-.12-.17c-.14-.22-.28-.44-.4-.67l-.2-.39c-.27-.52.32.76-.06-.15a7.28,7.28,0,0,0-.37-.8,3.72,3.72,0,0,0-2.17-1.72,2.5,2.5,0,0,0-1.33,4.83,1.72,1.72,0,0,1-.78-.55c-.25-.29,0-.08,0,0a1.57,1.57,0,0,0,.15.32l-.15-.34.25.59a7.65,7.65,0,0,0,.75,1.38,12.41,12.41,0,0,0,.75,1c.05.05.3.36.07.07s-.12-.16,0,0l-.11-.29c.13.4,0-.17,0-.17s0,.39,0,.42c0,.42.1.84.17,1.25a11.78,11.78,0,0,0,3.22,6.19,2.51,2.51,0,0,0,3.53,0,2.54,2.54,0,0,0,0-3.53Z" transform="translate(-16.91 -13.34)"/><path class="cls-3" d="M153.72,165.21a20.84,20.84,0,0,0-6.33-.84,2.52,2.52,0,0,0-2.5,2.5l2.27,19.3a14.92,14.92,0,0,1,.25,2.4c0-.15.16-.1.19-.19-.08.31-.1.1-.21.18-.66.44-1.9.73-2.81,1.2A6,6,0,0,0,141.5,196c.32,2.77,1.75,5.32,3.16,7.68a71.2,71.2,0,0,0,5.1,7.22c3.52,4.48,7.3,8.75,10.85,13.2a81.52,81.52,0,0,1,10.25,15.85c.9,1.91,4.16,1.45,4.57-.6.5-2.5-.16-4.67-1.11-7a17.87,17.87,0,0,1-1.46-6.72c-.07-4.83,1-9.62.38-14.44l-2.5,2.5c3.43-.08,6.35,2.08,9.12,3.84,3.22,2,6.51,4,9.86,5.73a158.21,158.21,0,0,0,21,9.26,2.53,2.53,0,0,0,3.07-1.75,2.56,2.56,0,0,0-1.74-3.08A148.41,148.41,0,0,1,191,218.28c-3.32-1.81-6.56-3.76-9.75-5.78s-6.64-3.92-10.55-3.83c-1.22,0-2.68,1.13-2.5,2.5.61,4.68-.38,9.32-.38,14a21,21,0,0,0,1,6.9c.61,1.77,2.12,4,1.73,5.9l4.57-.59c-4.8-10.17-12.46-18.54-19.53-27.15-1.73-2.12-3.44-4.26-5-6.52a28.36,28.36,0,0,1-3.91-7,3.69,3.69,0,0,1-.27-2.07c.21-.56,1-.7,1.67-1,2.54-1,4.39-2.58,4.24-5.55-.18-3.44-.81-6.93-1.22-10.35l-1.28-10.89-2.5,2.5a16,16,0,0,1,5,.66c3.1.9,4.42-3.92,1.33-4.82Z" transform="translate(-16.91 -13.34)"/><path class="cls-3" d="M155.72,196.15a47.5,47.5,0,0,0,6.17,9.95c1.58,2,4.94-.16,4.18-2.43a46,46,0,0,0-8-14.59,2.52,2.52,0,0,0-3-.4,2.61,2.61,0,0,0-1.15,2.83A29.11,29.11,0,0,0,162,206.94c1.73,1.72,4.92,0,4.18-2.43A33,33,0,0,0,158,190.82c-1.49-1.47-4.37-.43-4.27,1.77a17.12,17.12,0,0,0,5.73,12.18c1.79,1.56,5,.1,4.18-2.43a18.46,18.46,0,0,0-6.28-9.31c-1.27-1-3.88-1-4.18,1.11a11,11,0,0,0,3.47,10,2.52,2.52,0,0,0,4.18-2.43c-.84-3.24-3-6.64-6-8.26a3.19,3.19,0,0,0-4.75,2.35,6.71,6.71,0,0,0,1.37,5.56,4.28,4.28,0,0,0,4.77,1.5c2.07-.79,2.42-3.08,2.05-5-.65-3.36-5-7.22-8.49-5-3.22,2-1.63,7,1,8.82a4,4,0,0,0,5.19-.44,5,5,0,0,0,.88-4.81c-1.07-3.5-5.37-5.67-8.55-3.43-3.61,2.54-1.6,8.45,2.32,9.54a4,4,0,0,0,4.89-3.35c.41-2.15-.92-4.12-2.5-5.45-1.82-1.52-4.68-1.9-6.09.42-1.3,2.13-.31,4.35,1.25,6a2.51,2.51,0,0,0,3.92-.5,5.1,5.1,0,0,0-7-6.95,2.53,2.53,0,0,0,.6,4.57,7.11,7.11,0,0,0,7.37-2.1c2-2.19,2.61-5.18,2.72-8.07.22-5.87-.2-12.09-2.44-17.57a2.58,2.58,0,0,0-3.07-1.75,2.52,2.52,0,0,0-1.75,3.08,125.25,125.25,0,0,0,17.12,30.29l3.92-3a104,104,0,0,1-11.73-12.56,2.52,2.52,0,0,0-3-.39,2.62,2.62,0,0,0-1.15,2.82,25,25,0,0,0,6,11.85,31.56,31.56,0,0,0,4.9,4.48,41.51,41.51,0,0,1,5.56,4.4,2.54,2.54,0,0,0,3,.39,2.62,2.62,0,0,0,1.15-2.82,17.82,17.82,0,0,0-4.88-9.65c-1.64-1.7-5.1,0-4.18,2.43s1.88,4.78,2.78,7.19c.08.19.15.39.22.59.05-1.11.43-1.66,1.15-1.65a4.23,4.23,0,0,0-1.12.08,5.23,5.23,0,0,0-3,1.21l3.93.51a3.1,3.1,0,0,1-.23-1,2.46,2.46,0,0,0-2.08-1.79,2.59,2.59,0,0,0-2.49,1.2,5.73,5.73,0,0,0,.86,7.54,2.56,2.56,0,0,0,3.93-.51,6,6,0,0,0-1.83-8.29,2.52,2.52,0,0,0-3.42.9c-1.48,2.92-1,6-.31,9a64.15,64.15,0,0,1,1.57,9.24l4.91-.66a116.89,116.89,0,0,0-10.29-21.31l-3.93,3a30.26,30.26,0,0,1,3.92,4.16,2.57,2.57,0,0,0,3.42.9,2.52,2.52,0,0,0,.89-3.42,14.24,14.24,0,0,0-9.72-6.88,2.53,2.53,0,0,0-3.07,3.07,9.2,9.2,0,0,0,2.78,5.05,2.5,2.5,0,0,0,3.54-3.54,34.09,34.09,0,0,0-5-4.44,2.45,2.45,0,0,0-3.22.64,2.52,2.52,0,0,0,.19,3.28l2,2.21,3-3.93a13.33,13.33,0,0,1-4.92-5.84L146.28,199c3.47,2.56,5.38,6.8,8.15,10,2.43,2.84,6.55,5.11,7.13,9.09l4.18-2.43a41.29,41.29,0,0,1-4.56-4.31,21.22,21.22,0,0,1-2.86-5.06,16.12,16.12,0,0,0-3.41-4.54c-1.08-1.07-2.45-2.17-3-3.63l-4.57,1.92a84.21,84.21,0,0,0,7.52,11.35,2.51,2.51,0,0,0,3.53,0,2.55,2.55,0,0,0,0-3.54,76.64,76.64,0,0,1-6.74-10.33c-1.33-2.42-5.59-.77-4.57,1.92a14.46,14.46,0,0,0,3.52,5.09,15.31,15.31,0,0,1,3.4,4.28,25.24,25.24,0,0,0,3.38,5.76,39.07,39.07,0,0,0,4.82,4.63c2,1.71,4.54,0,4.18-2.44-.71-4.87-5.14-7.6-8.17-11-3.27-3.68-5.36-8.1-9.4-11.09a2.51,2.51,0,0,0-3,.39,2.6,2.6,0,0,0-.39,3,17.92,17.92,0,0,0,6.71,7.64c2.46,1.58,4.9-1.9,3-3.93l-2-2.2-3,3.92a28.29,28.29,0,0,1,4,3.67l3.54-3.54a4.72,4.72,0,0,1-1.5-2.83L153,203.94a9.54,9.54,0,0,1,6.74,4.58l4.31-2.52a36.58,36.58,0,0,0-4.69-5.18c-2-1.83-5.48.51-3.93,3A110.68,110.68,0,0,1,165.24,224a2.53,2.53,0,0,0,2.74,1.79,2.47,2.47,0,0,0,2.17-2.46,68.86,68.86,0,0,0-1.33-8.81c-.46-2.07-1.66-4.88-.62-6.93l-3.42.9c.55.37.35,1,0,1.45l3.92-.51c-.62-.53-.54-.88-.07-1.48l-4.57-.6a7.38,7.38,0,0,0,.73,2.18c.76,1.58,2.79,1.43,3.93.51-.74.59-.34.2-.24.22-.14,0,.42,0,.51,0a7.75,7.75,0,0,0,1.67-.26,3.47,3.47,0,0,0,2.43-3.23c0-1.49-.82-3-1.35-4.35l-1.8-4.64-4.17,2.43a13.46,13.46,0,0,1,3.59,7.45l4.18-2.44c-3-3.16-7-5.08-10-8.3a20.43,20.43,0,0,1-5.18-10.21l-4.17,2.43A104,104,0,0,0,166,201.63a2.5,2.5,0,0,0,3.92-3,120.73,120.73,0,0,1-16.61-29.09l-4.82,1.33a36.15,36.15,0,0,1,2.28,13.59c0,2,.18,4.26-.63,6.14-.55,1.29-1.76,2.35-3.15,1.86l.6,4.57c.15-.09.29-.13.16.11l3.92-.51c-.18-.2-.31-.41-.4-.35-.4.27.32.91-.66,1.06h-1.33c.41.06.55.25.84.56,0,0,.31.36.32.36a1,1,0,0,1,.12.19q0,.14,0-.12a.4.4,0,0,1,.2-.38l1.46,0c0-.06-.5-.48-.56-.55s-.52-1-.52-.37c0,.45-.28-.25.13.06a3.69,3.69,0,0,1,.35.27,8,8,0,0,1,.43.74c.38.38-.14,0,0,0a.14.14,0,0,1,.05-.08,1.4,1.4,0,0,1,.7-.53c.79-.2.71.37.43-.3-.11-.27-.22-.57-.32-.8s.25-.21-.05,0a.59.59,0,0,1-.54.56c-.53.24-.67.34-.41.32.06.15.75.47.92.67a2.26,2.26,0,0,1,.47.91c0-.1.1.5.05.39.35.77,1.74-.84,1.73-1.09,0-.07-.1-.33-.15-.51s0-.42-.06-.6.12-.29,0-.1l-.9.9.2-.15L153,198h.39l-1.26-.34a8.34,8.34,0,0,1,3.86,5.37l4.18-2.44a5.9,5.9,0,0,1-2.18-5.15l-4.17,1.11a14.05,14.05,0,0,1,5,7.1l4.18-2.43a12.16,12.16,0,0,1-4.27-8.65l-4.27,1.77a27.41,27.41,0,0,1,7,11.48l4.18-2.44a24.61,24.61,0,0,1-6.86-13.22l-4.18,2.43A39.39,39.39,0,0,1,161.25,205l4.18-2.43a42.17,42.17,0,0,1-5.39-8.95,2.51,2.51,0,0,0-3.42-.89,2.55,2.55,0,0,0-.9,3.42Z" transform="translate(-16.91 -13.34)"/><path class="cls-3" d="M170.93,203.43a19.94,19.94,0,0,0,5.31-12.69c.13-2.94-4-3.23-4.91-.67a29.87,29.87,0,0,0-1.26,7.4,12.67,12.67,0,0,0,.72,6.37,9.79,9.79,0,0,0,3.79,4c1.23.81,2.78,1.47,3.58,2.75l3.42-3.42a72.2,72.2,0,0,1-8.37-4.69l-1.93,4.57a32.87,32.87,0,0,1,10.57,3.48l1.93-4.57a49.23,49.23,0,0,0-11-2c-2.94-.2-3.21,4-.66,4.91a12.49,12.49,0,0,0,4.93.64c2.37-.17,3.54-3.36,1.26-4.66a10.48,10.48,0,0,0-3.74-1.33,2.58,2.58,0,0,0-3.08,1.74,2.56,2.56,0,0,0,1.75,3.08,77,77,0,0,1,13.49,5.8l1.93-4.56-9-3.11c-2.79-1-4.18,3.07-1.92,4.57a49.78,49.78,0,0,0,7.27,4l1.26-4.65c-1-.09-1.85-1.63-2.33-2.35q-1.5-2.24-2.8-4.59a61.58,61.58,0,0,1-4.3-9.6l-4.18,2.43q10,12.47,20.75,24.29l2.43-4.18a37.39,37.39,0,0,1-10.91-5.15L183,215.79a50.78,50.78,0,0,1,16.19,8.47l3-3.93a161.55,161.55,0,0,0-15-9.3c-2.43-1.27-4.93-2.33-7.44-3.42-2-.87-4.26-1.87-5.52-3.76-1.77-2.67-6.11-.17-4.32,2.52,3.17,4.77,9.11,6.09,13.95,8.56a152.77,152.77,0,0,1,15.77,9.72c2.32,1.56,5.28-2.16,3-3.93A57.61,57.61,0,0,0,184.33,211c-2.83-.88-4.17,3-1.93,4.57a41.31,41.31,0,0,0,12.1,5.66c2.49.71,4.06-2.38,2.43-4.18q-10.74-11.82-20.75-24.29c-1.56-1.94-5,.16-4.18,2.44a69.86,69.86,0,0,0,5.48,12c2,3.5,4.31,7.84,8.78,8.25,2.41.22,3.5-3.66,1.26-4.66a50.36,50.36,0,0,1-7.27-4l-1.93,4.57,9,3.11c2.68.93,4.39-3.22,1.92-4.57a83.5,83.5,0,0,0-14.68-6.31l-1.33,4.82a6.78,6.78,0,0,1,2.55.83l1.26-4.66a8.81,8.81,0,0,1-3.6-.46l-.67,4.91a43.34,43.34,0,0,1,9.71,1.82c2.69.83,4.44-3.22,1.93-4.56a36.45,36.45,0,0,0-11.77-4c-2.72-.42-4.44,2.94-1.93,4.57a73.85,73.85,0,0,0,8.38,4.69c2.11,1,4.84-1.15,3.42-3.42a11.46,11.46,0,0,0-3.7-3.5,11.81,11.81,0,0,1-3.16-2.28c-1-1.3-.67-3.32-.55-4.82a24.48,24.48,0,0,1,1.08-6.07l-4.91-.66a14.56,14.56,0,0,1-3.85,9.16c-2.18,2.36,1.35,5.9,3.54,3.53Z" transform="translate(-16.91 -13.34)"/><path class="cls-3" d="M157,201.53l2.64,6.33a2.73,2.73,0,0,0,1.15,1.5,2.51,2.51,0,0,0,3.42-.9,2.43,2.43,0,0,0,.25-1.93l-2.64-6.33a2.67,2.67,0,0,0-1.15-1.49,2.49,2.49,0,0,0-3.42.89,2.43,2.43,0,0,0-.25,1.93Z" transform="translate(-16.91 -13.34)"/><path class="cls-3" d="M157.94,204.6a39.49,39.49,0,0,0,2.43,5.39,2.59,2.59,0,0,0,1.5,1.15,2.53,2.53,0,0,0,1.92-.26,2.46,2.46,0,0,0,1.15-1.49,2.71,2.71,0,0,0-.25-1.93,32.58,32.58,0,0,1-1.56-3.2l.25.59c-.22-.52-.42-1-.62-1.58a2.66,2.66,0,0,0-1.14-1.49,2.55,2.55,0,0,0-1.93-.25,2.51,2.51,0,0,0-1.5,1.15,2.45,2.45,0,0,0-.25,1.92Z" transform="translate(-16.91 -13.34)"/><path class="cls-3" d="M157.68,202.75a7.39,7.39,0,0,0,2.48,5.51,2.59,2.59,0,0,0,1.76.73,2.54,2.54,0,0,0,1.52-.54,2.3,2.3,0,0,0,.89-1.29,2.76,2.76,0,0,0-.25-1.93l-.66-1.32a2.49,2.49,0,0,0-1.49-1.15,2.5,2.5,0,0,0-3.08,1.74l-.09.67a2.54,2.54,0,0,0,.35,1.26l1.41,3.32A2.5,2.5,0,0,0,162,210.9a2.5,2.5,0,0,0,3.08-1.75l.09-.66a2.54,2.54,0,0,0-.35-1.26l-1.41-3.32-4.31,2.52.66,1.32,3.92-3A5.15,5.15,0,0,1,163,204l.39.51a5.24,5.24,0,0,1-.65-1.09l.25.59a4.89,4.89,0,0,1-.36-1.31l.09.67a4.44,4.44,0,0,1,0-.63A2.57,2.57,0,0,0,162,201a2.5,2.5,0,0,0-4.27,1.77Z" transform="translate(-16.91 -13.34)"/><path class="cls-3" d="M183.55,169l2.17,4.3c1.27,2.51,5.49.77,4.57-1.92A28.71,28.71,0,0,0,184,160.78c-2-2.08-5.36.59-3.93,3L190.15,181c1.63,2.77,5.95.26,4.32-2.52l-10.11-17.19-3.93,3a23.16,23.16,0,0,1,5,8.34l4.57-1.92-2.17-4.31a2.5,2.5,0,0,0-4.32,2.53Z" transform="translate(-16.91 -13.34)"/><path class="cls-3" d="M181.62,164.46A191.32,191.32,0,0,0,202,194.32a2.53,2.53,0,0,0,3.54,0,2.55,2.55,0,0,0,0-3.53,184.83,184.83,0,0,1-19.57-28.85c-1.55-2.82-5.87-.3-4.32,2.52Z" transform="translate(-16.91 -13.34)"/><path class="cls-3" d="M180.86,166.89l16.54,24.94c1.78,2.67,6.11.17,4.32-2.52l-16.55-24.94c-1.77-2.67-6.1-.17-4.31,2.52Z" transform="translate(-16.91 -13.34)"/><path class="cls-3" d="M181.05,168q12.63,17.25,24.54,35c1.78,2.66,6.11.16,4.32-2.52q-11.91-17.78-24.54-35a2.58,2.58,0,0,0-3.42-.89,2.51,2.51,0,0,0-.9,3.42Z" transform="translate(-16.91 -13.34)"/><path class="cls-3" d="M197.75,190.12c4.54,6.92,8.81,14.16,14.09,20.55a2.51,2.51,0,0,0,3.53,0,2.56,2.56,0,0,0,0-3.54,102.31,102.31,0,0,1-6.58-9.28l-6.72-10.25a2.5,2.5,0,0,0-4.32,2.52Z" transform="translate(-16.91 -13.34)"/><path class="cls-3" d="M199.49,190.89l16.35,23.48a2.57,2.57,0,0,0,3.42.9,2.54,2.54,0,0,0,.9-3.43L203.8,188.36a2.57,2.57,0,0,0-3.42-.89,2.52,2.52,0,0,0-.89,3.42Z" transform="translate(-16.91 -13.34)"/><path class="cls-3" d="M206.46,202.39a46.27,46.27,0,0,0,3.84,6c1.3,1.91,2.55,3.86,3.76,5.83a135.78,135.78,0,0,1,6.67,12.41,2.52,2.52,0,0,0,3.42.9,2.56,2.56,0,0,0,.9-3.42,133.46,133.46,0,0,0-6.68-12.41c-1.2-2-2.45-3.92-3.75-5.83a47.08,47.08,0,0,1-3.84-6,2.5,2.5,0,0,0-4.32,2.53Z" transform="translate(-16.91 -13.34)"/><path class="cls-3" d="M206.73,204.54c8.42,9.62,12.07,22.39,20.34,32.15,1.89,2.23,5.25-.62,3.93-3-.87-1.59-2.81-5-.52-6.19a13.11,13.11,0,0,1,4.18-.88l5.89-.81c2.12-.29,2.42-3.68.6-4.57q-10.2-5-20.77-9.08c-2.2-.86-3.7,1.92-2.82,3.67a52.66,52.66,0,0,0,6.21,9.55,2.44,2.44,0,0,0,2.43.64,7,7,0,0,0,5.17-5.19,7.56,7.56,0,0,0-2.31-6.91,35.88,35.88,0,0,0-5.69-4.07,31.38,31.38,0,0,1-6-5.47l-3,3.92,10.85,8.23,2.53-4.32a50.94,50.94,0,0,1-13.12-13.35l-3.93,3a91.86,91.86,0,0,1,12.56,12.46,2.51,2.51,0,0,0,3.53,0,2.55,2.55,0,0,0,0-3.54,90.59,90.59,0,0,0-12.55-12.45,2.55,2.55,0,0,0-3.29-.2,2.49,2.49,0,0,0-.64,3.23,57.56,57.56,0,0,0,14.91,15.14,2.52,2.52,0,0,0,3.42-.9,2.56,2.56,0,0,0-.89-3.42L216.83,204a2.47,2.47,0,0,0-3.23.64,2.52,2.52,0,0,0,.2,3.28,44.75,44.75,0,0,0,9.74,8c1.07.71,2.53,1.65,2.9,2.93a1.9,1.9,0,0,1-1.57,2.38l2.43.65a47.59,47.59,0,0,1-5.42-8.54L219.05,217q10,3.88,19.57,8.58l.6-4.57c-2.53.35-5.07.65-7.59,1a9.44,9.44,0,0,0-5.29,2.35c-3.35,3.33-1.6,8.28.34,11.83l3.93-3c-8.26-9.75-11.9-22.5-20.35-32.15a2.51,2.51,0,0,0-3.53,0,2.54,2.54,0,0,0,0,3.53Z" transform="translate(-16.91 -13.34)"/><path class="cls-3" d="M195.78,186.44a56,56,0,0,0,7.67,10.62,108.28,108.28,0,0,0,9.79,8.74,40.48,40.48,0,0,1,13,19.84c.87,3.09,5.7,1.78,4.82-1.33a44.58,44.58,0,0,0-13.22-21.13c-3.41-3-7.1-5.71-10.25-9a50.38,50.38,0,0,1-7.48-10.24c-1.57-2.82-5.89-.3-4.32,2.52Z" transform="translate(-16.91 -13.34)"/><path class="cls-3" d="M151.25,173.09a155.24,155.24,0,0,0-4.84-16.91l-4.18,2.43a23.28,23.28,0,0,1,4.67,7.62l4.57-1.93-6-11.88c-1.11-2.19-4.79-1.18-4.66,1.26.19,3.61,2.5,6.31,4,9.43a26.37,26.37,0,0,1,2.48,9,2.57,2.57,0,0,0,2.5,2.5,2.51,2.51,0,0,0,2.5-2.5,33.54,33.54,0,0,0-2.58-10.23,36.88,36.88,0,0,0-2.27-4.31,8.8,8.8,0,0,1-1.64-3.87l-4.66,1.26,6,11.88c1.27,2.49,5.56.75,4.57-1.92a29.46,29.46,0,0,0-6-9.82c-1.64-1.8-5,.07-4.17,2.43a154.55,154.55,0,0,1,4.83,16.91,2.54,2.54,0,0,0,3.08,1.75,2.57,2.57,0,0,0,1.75-3.08Z" transform="translate(-16.91 -13.34)"/><path class="cls-3" d="M170,186.41,167.22,182l-1.49,3.67a10.27,10.27,0,0,0,7.78-5.93l-4.57-.59a6.47,6.47,0,0,1-1.07,4.31c-1.11,1.79-2,3.42-1.48,5.57a2.5,2.5,0,0,0,4.82-1.32,8.89,8.89,0,0,1,2.34-7.75l-4.18-1.1a17.17,17.17,0,0,1-.17,6.66c-.41,2.51-.78,5-.95,7.55a62.17,62.17,0,0,0,.87,14.73,2.54,2.54,0,0,0,3.08,1.75,2.57,2.57,0,0,0,1.75-3.08,56.15,56.15,0,0,1-.62-14.36c.4-4.87,2-9.7.86-14.58a2.52,2.52,0,0,0-4.18-1.1,14.13,14.13,0,0,0-3.62,12.6l4.82-1.32c-.09-.39.68-1.26.86-1.55a12.48,12.48,0,0,0,1.28-2.59,11.69,11.69,0,0,0,.41-5.75c-.3-2-3.74-2.51-4.57-.6a5.83,5.83,0,0,1-4.79,3.63c-1.6.22-2.26,2.44-1.49,3.67l2.76,4.41c1.71,2.72,6,.22,4.32-2.52Z" transform="translate(-16.91 -13.34)"/></g><g id="Layer_6" data-name="Layer 6"><path class="cls-5" d="M152.43,229.73A132.18,132.18,0,0,0,138.33,215a29.31,29.31,0,0,0-4.13-3.24c-1.55-1-3.24-1.65-4.86-2.47C119,204,113.9,194.09,108.56,184.31c-2.89-5.3-5.55-10.71-8.2-16.13q-20.22,23.76-42.25,45.9c-.71.71-1.36,1.36-2,2.13a22.12,22.12,0,0,1-12.81,7.6" transform="translate(-16.91 -13.34)"/></g><g id="Layer_7" data-name="Layer 7"><path class="cls-5" d="M114.75,193.7c8.31-9.29,14.55-20.2,20.74-31L142.74,150c4.74,3.09,7.75,8.23,9.89,13.47s3.57,10.77,6.07,15.84c2.82,5.71,6.94,10.75,9.19,16.7l6.22-16.16c.72,9.9,7.78,18,14.47,25.34L210.41,229" transform="translate(-16.91 -13.34)"/></g><g id="Layer_8" data-name="Layer 8"><path class="cls-5" d="M161.73,182.78a88.05,88.05,0,0,0,21.58-25.13c6,9.33,12,18.69,18.93,27.37a166.6,166.6,0,0,0,49.55,41.91,13.06,13.06,0,0,0,4.05,1.91" transform="translate(-16.91 -13.34)"/><path class="cls-5" d="M64.62,208.11v-.51" transform="translate(-16.91 -13.34)"/></g><g id="Layer_12" data-name="Layer 12"><polygon class="cls-6" points="134.94 24.18 106.95 72.64 162.92 72.64 134.94 24.18"/></g><g id="Layer_13" data-name="Layer 13"><path class="cls-6" d="M118.42,97.75c3.77-13.53,61.4-14,65.47-.31,2.4,8.09-12.72,25.4-31.54,26.13C132.31,124.34,116.12,106,118.42,97.75Z" transform="translate(-16.91 -13.34)"/></g><g id="Layer_2" data-name="Layer 2"><path class="cls-7" d="M185.07,99H116c-2.76-.07-5.07,1-5,2.38s2.32,2.38,5,2.3h72c3-.08,5.12-1.4,4.77-2.68-.3-1.07-2.3-2-4.77-2H118.85" transform="translate(-16.91 -13.34)"/></g><g id="Layer_10" data-name="Layer 10"><rect class="cls-7" x="98.77" y="72.65" width="70.98" height="13.02" rx="3.29"/><polygon class="cls-7" points="134.94 39.23 116.12 71.83 153.76 71.83 134.94 39.23"/><path class="cls-7" d="M126.15,86h-7.53V60.14a6.54,6.54,0,0,1,3.8-.88,6.46,6.46,0,0,1,3.73.88Z" transform="translate(-16.91 -13.34)"/><path class="cls-7" d="M184.4,86h-7.7V60.14a6.83,6.83,0,0,1,3.9-.88,6.68,6.68,0,0,1,3.8.88Z" transform="translate(-16.91 -13.34)"/><path class="cls-7" d="M140.56,85.17H133V49.25A5.21,5.21,0,0,1,136.84,48a5.16,5.16,0,0,1,3.72,1.23Z" transform="translate(-16.91 -13.34)"/><path class="cls-7" d="M170.67,85.4h-7.53V49.48A5.25,5.25,0,0,1,167,48.26a5.13,5.13,0,0,1,3.72,1.22Z" transform="translate(-16.91 -13.34)"/></g><g id="Layer_11" data-name="Layer 11"><path class="cls-7" d="M123.24,97.24C126.46,86.4,175.6,86,179.07,97c2.05,6.49-10.84,20.35-26.89,20.93C135.09,118.54,121.28,103.84,123.24,97.24Z" transform="translate(-16.91 -13.34)"/></g></svg>